HIERARCHY
ROOT joint_Root
{
	OFFSET 0.0 0.0 0.0
	CHANNELS 6 Xposition Yposition Zposition Zrotation Xrotation Yrotation 
	JOINT Hips
	{
		OFFSET 4.5925 91.4895 -427.239
		CHANNELS 6 Xposition Yposition Zposition Zrotation Xrotation Yrotation 
		JOINT Spine
		{
			OFFSET 15.7357 0.0 0.0
			CHANNELS 6 Xposition Yposition Zposition Zrotation Xrotation Yrotation 
			JOINT Chest
			{
				OFFSET 8.98455 -0.406207 0.0
				CHANNELS 6 Xposition Yposition Zposition Zrotation Xrotation Yrotation 
				JOINT Neck
				{
					OFFSET 16.3773 0.0 0.0
					CHANNELS 6 Xposition Yposition Zposition Zrotation Xrotation Yrotation 
					JOINT Head
					{
						OFFSET 6.45672 0.0 0.0
						CHANNELS 6 Xposition Yposition Zposition Zrotation Xrotation Yrotation 
						End Site
						{
							OFFSET 0.0 0.0 0.0
						}
					}
				}
				JOINT Shoulder_L
				{
					OFFSET 12.9942 -0.242716 4.98039
					CHANNELS 6 Xposition Yposition Zposition Zrotation Xrotation Yrotation 
					JOINT UpperArm_L
					{
						OFFSET 5.34809 0.0 0.0
						CHANNELS 6 Xposition Yposition Zposition Zrotation Xrotation Yrotation 
						JOINT LowerArm_L
						{
							OFFSET 24.3286 1.87007e-05 0.0
							CHANNELS 6 Xposition Yposition Zposition Zrotation Xrotation Yrotation 
							JOINT Hand_L
							{
								OFFSET 22.2916 0.0 0.0
								CHANNELS 6 Xposition Yposition Zposition Zrotation Xrotation Yrotation 
								End Site
								{
									OFFSET 0.0 0.0 0.0
								}
							}
						}
					}
				}
				JOINT Shoulder_R
				{
					OFFSET 12.9945 -0.242716 -4.98039
					CHANNELS 6 Xposition Yposition Zposition Zrotation Xrotation Yrotation 
					JOINT UpperArm_R
					{
						OFFSET -5.34813 0.0 0.0
						CHANNELS 6 Xposition Yposition Zposition Zrotation Xrotation Yrotation 
						JOINT LowerArm_R
						{
							OFFSET -24.3289 0.000322201 0.0
							CHANNELS 6 Xposition Yposition Zposition Zrotation Xrotation Yrotation 
							JOINT Hand_R
							{
								OFFSET -22.2915 -0.000108084 0.0
								CHANNELS 6 Xposition Yposition Zposition Zrotation Xrotation Yrotation 
								End Site
								{
									OFFSET 0.0 0.0 0.0
								}
							}
						}
					}
				}
			}
		}
		JOINT UpperLeg_L
		{
			OFFSET -2.19248 -6.46944 0.0
			CHANNELS 6 Xposition Yposition Zposition Zrotation Xrotation Yrotation 
			JOINT LowerLeg_L
			{
				OFFSET 39.0811 0.0 -1.23785e-05
				CHANNELS 6 Xposition Yposition Zposition Zrotation Xrotation Yrotation 
				JOINT Foot_L
				{
					OFFSET 40.9854 0.0 -1.26872e-05
					CHANNELS 6 Xposition Yposition Zposition Zrotation Xrotation Yrotation 
					JOINT Toes_L
					{
						OFFSET 11.7543 0.0 0.0
						CHANNELS 6 Xposition Yposition Zposition Zrotation Xrotation Yrotation 
						End Site
						{
							OFFSET 0.0 0.0 0.0
						}
					}
				}
			}
		}
		JOINT UpperLeg_R
		{
			OFFSET -2.19251 6.46944 0.0
			CHANNELS 6 Xposition Yposition Zposition Zrotation Xrotation Yrotation 
			JOINT LowerLeg_R
			{
				OFFSET -39.0811 -0.00228153 -0.0401928
				CHANNELS 6 Xposition Yposition Zposition Zrotation Xrotation Yrotation 
				JOINT Foot_R
				{
					OFFSET -40.9854 0.0 0.0
					CHANNELS 6 Xposition Yposition Zposition Zrotation Xrotation Yrotation 
					JOINT Toes_R
					{
						OFFSET -11.7543 0.0 0.0
						CHANNELS 6 Xposition Yposition Zposition Zrotation Xrotation Yrotation 
						End Site
						{
							OFFSET 0.0 0.0 0.0
						}
					}
				}
			}
		}
	}
}
MOTION
Frames:	4
Frame Time:	0.0333333
0.000000 0.000000 0.000000 0.000000 0.000000 -0.000000 0.495941 84.536200 1.764670 89.880500 -5.030690 10.365900 15.735700 0.000005 -0.000001 86.675500 81.387900 -87.110300 8.984550 -0.406207 -0.000000 9.426630 -0.999442 -0.786368 16.377300 -0.000001 -0.000001 -1.850240 -2.888190 -0.244555 6.456720 -0.000001 -0.000000 -6.249750 -2.973200 -1.224000 12.994200 -0.242716 4.980390 -89.697900 -0.744414 -67.917900 5.348090 -0.000007 -0.000001 -77.344000 -1.358790 7.146290 24.328600 0.000019 0.000005 -1.462310 -5.343440 -15.328000 22.291600 -0.000001 0.000005 16.304100 4.951270 8.337500 12.994500 -0.242716 -4.980390 88.585400 5.500310 -75.550600 -5.348130 -0.000001 -0.000004 -69.692500 1.241990 -2.445520 -24.328900 0.000322 -0.000009 -2.538390 -22.027900 -6.737040 -22.291500 -0.000108 -0.000004 15.237500 4.956150 8.252440 -2.192480 -6.469440 -0.000000 -175.930000 -10.765800 -9.643940 39.081100 -0.000007 -0.000012 -0.499852 0.358781 54.331300 40.985400 -0.000006 -0.000013 0.097115 1.421220 -84.197800 11.754300 -0.000000 0.000003 -0.000473 -0.003803 -16.716900 -2.192510 6.469440 -0.000001 175.418000 11.261800 168.727000 -39.081100 -0.002282 -0.040193 0.061023 -0.039523 55.635600 -40.985400 0.000008 0.000006 3.654620 2.827960 -82.605600 -11.754300 -0.000006 -0.000006 -0.904629 -1.111130 -17.347600
0.000000 0.000000 0.000000 0.000000 0.000000 -0.000000 0.477502 87.191100 2.380860 89.907900 -3.815880 9.090140 15.735700 0.000005 -0.000001 87.634100 82.816800 -88.074400 8.984550 -0.406207 -0.000000 6.586310 -0.586676 -0.845683 16.377300 -0.000001 -0.000001 0.169560 -3.540310 -0.213720 6.456720 -0.000001 -0.000000 -4.964360 -3.786850 -1.435220 12.994200 -0.242716 4.980390 -89.094900 -2.169350 -67.348600 5.348090 -0.000007 -0.000001 -72.594400 -7.737690 2.471990 24.328600 0.000019 0.000005 -0.339966 -1.023050 -18.419100 22.291600 -0.000001 0.000005 19.246900 4.914390 9.088820 12.994500 -0.242716 -4.980390 89.005500 3.625860 -74.648100 -5.348130 -0.000001 -0.000004 -64.010100 -7.670700 -5.230080 -24.328900 0.000322 -0.000009 -1.819500 -19.732800 -5.371690 -22.291500 -0.000108 -0.000004 13.842400 4.869850 9.972820 -2.192480 -6.469440 -0.000000 -176.423000 -9.677270 -6.233340 39.081100 -0.000007 -0.000012 -0.389613 0.387107 45.185700 40.985400 -0.000006 -0.000013 -0.003979 1.544600 -79.842700 11.754300 -0.000000 0.000003 -0.000359 -0.003023 -16.689500 -2.192510 6.469440 -0.000001 175.411000 12.378400 172.267000 -39.081100 -0.002282 -0.040193 0.043907 -0.037985 46.940600 -40.985400 0.000008 0.000006 3.451570 3.111630 -78.191400 -11.754300 -0.000006 -0.000006 -0.899272 -1.096090 -17.841200
0.000000 0.000000 0.000000 0.000000 0.000000 -0.000000 0.508914 89.496800 2.596740 89.847700 -2.691650 6.292780 15.735700 0.000005 -0.000001 88.648300 84.979500 -89.055400 8.984550 -0.406207 -0.000000 2.271470 -0.217171 -0.809147 16.377300 -0.000001 -0.000001 3.286130 -3.860730 -0.078969 6.456720 -0.000001 -0.000000 -2.671440 -4.112390 -1.526390 12.994200 -0.242716 4.980390 -88.299300 -3.939730 -66.630000 5.348090 -0.000007 -0.000001 -67.573200 -17.565900 -6.854500 24.328600 0.000019 0.000005 -1.319560 -3.111460 -22.966800 22.291600 -0.000001 0.000005 22.170300 4.924910 8.882120 12.994500 -0.242716 -4.980390 89.581300 1.417000 -73.527400 -5.348130 -0.000001 -0.000004 -56.204900 -17.372400 -12.111800 -24.328900 0.000322 -0.000009 -1.717660 -20.825300 -4.818610 -22.291500 -0.000108 -0.000004 15.211600 4.858080 10.205500 -2.192480 -6.469440 -0.000000 -176.825000 -9.813180 -4.473020 39.081100 -0.000007 -0.000012 -0.252794 0.350506 35.800600 40.985400 -0.000006 -0.000013 0.203059 2.534980 -75.075800 11.754300 -0.000000 0.000003 -0.000188 -0.001754 -16.643900 -2.192510 6.469440 -0.000001 175.696000 14.634000 173.789000 -39.081100 -0.002282 -0.040193 0.028166 -0.031355 38.435700 -40.985400 0.000008 0.000006 3.530680 4.460060 -73.090500 -11.754300 -0.000006 -0.000006 -0.995234 -1.195900 -18.701600
0.000000 0.000000 0.000000 0.000000 0.000000 -0.000000 0.553237 90.901500 2.529110 89.458400 -1.820750 3.926000 15.735700 0.000005 -0.000001 88.194900 86.682200 -88.376800 8.984550 -0.406207 -0.000000 -1.134110 -0.194844 -0.365610 16.377300 -0.000001 -0.000001 5.866150 -4.070060 -0.079482 6.456720 -0.000001 -0.000000 -0.768147 -4.278460 -1.694130 12.994200 -0.242716 4.980390 -88.002900 -4.531440 -66.185100 5.348090 -0.000007 -0.000001 -62.329500 -25.607700 -21.056200 24.328600 0.000019 0.000005 -1.506730 -2.726830 -28.972100 22.291600 -0.000001 0.000005 23.343500 5.018190 6.924360 12.994500 -0.242716 -4.980390 90.115700 -0.379647 -73.027100 -5.348130 -0.000001 -0.000004 -48.932200 -28.855600 -23.697500 -24.328900 0.000322 -0.000009 -2.860120 -25.233700 -6.677280 -22.291500 -0.000108 -0.000004 14.887600 4.956290 8.208720 -2.192480 -6.469440 -0.000000 -176.840000 -10.893400 -3.854670 39.081100 -0.000007 -0.000012 -0.086761 0.154098 29.380800 40.985400 -0.000006 -0.000013 2.144280 3.995710 -71.830700 11.754300 -0.000000 0.000003 -0.889453 -1.151620 -15.884200 -2.192510 6.469440 -0.000001 176.168000 17.718300 174.597000 -39.081100 -0.002282 -0.040193 0.016914 -0.021728 32.075200 -40.985400 0.000008 0.000006 3.672530 6.985310 -69.335900 -11.754300 -0.000006 -0.000006 -1.074980 -1.278780 -19.226600
